<?xml version="1.0" standalone="no"?>
<!DOCTYPE svg PUBLIC "-//W3C//DTD SVG 20010904//EN"
 "http://www.w3.org/TR/2001/REC-SVG-20010904/DTD/svg10.dtd">
<svg version="1.0" xmlns="http://www.w3.org/2000/svg"
 width="564.000000pt" height="514.000000pt" viewBox="0 0 564.000000 514.000000"
 preserveAspectRatio="xMidYMid meet">
<metadata>
Created by potrace 1.16, written by Peter Selinger 2001-2019
</metadata>
<g transform="translate(0.000000,514.000000) scale(0.100000,-0.100000)"
fill="#000000" stroke="none">
<path d="M1745 4374 c-24 -135 -44 -222 -54 -231 -12 -12 -36 -15 -127 -11
l-111 4 -42 -83 -41 -83 -84 0 -84 0 -38 -112 c-20 -62 -39 -119 -42 -125 -3
-10 334 -13 1663 -13 1329 0 1666 3 1663 13 -3 6 -22 63 -42 125 l-38 112 -84
0 -84 0 -40 79 c-21 44 -45 81 -52 84 -7 2 -58 2 -113 0 -75 -4 -104 -2 -116
9 -11 9 -28 80 -54 231 l-39 217 -1001 0 -1001 0 -39 -216z m1121 -165 c79
-14 177 -63 219 -110 19 -22 35 -43 35 -49 0 -33 -105 -88 -213 -112 -83 -17
-250 -5 -331 25 -62 23 -126 68 -126 89 0 20 77 90 127 114 101 50 184 62 289
43z"/>
<path d="M1290 3627 c-1 -6 111 -720 247 -1584 l248 -1573 1000 0 1000 0 248
1573 c136 864 248 1578 247 1584 0 19 -2990 19 -2990 0z m2526 -854 c-6 -31
-110 -683 -132 -833 -8 -52 -16 -105 -19 -117 l-5 -23 -875 0 -875 0 -5 23
c-3 12 -37 225 -75 472 -39 248 -73 462 -76 478 l-6 27 1037 0 1037 0 -6 -27z"/>
</g>
</svg>
