<?xml version="1.0" standalone="no"?>
<!DOCTYPE svg PUBLIC "-//W3C//DTD SVG 20010904//EN"
 "http://www.w3.org/TR/2001/REC-SVG-20010904/DTD/svg10.dtd">
<svg version="1.0" xmlns="http://www.w3.org/2000/svg"
 width="634.000000pt" height="528.000000pt" viewBox="0 0 634.000000 528.000000"
 preserveAspectRatio="xMidYMid meet">
<metadata>
Created by potrace 1.16, written by Peter Selinger 2001-2019
</metadata>
<g transform="translate(0.000000,528.000000) scale(0.100000,-0.100000)"
fill="#000000" stroke="none">
<path d="M1760 4863 c-60 -31 -111 -96 -130 -161 -24 -87 -34 -300 -21 -459
29 -372 117 -684 297 -1045 114 -230 339 -576 354 -546 4 7 18 60 30 118 122
577 407 1054 828 1388 l83 66 -108 106 c-240 232 -499 394 -777 485 -133 43
-248 64 -391 72 -107 5 -111 4 -165 -24z"/>
<path d="M4445 4669 c-707 -102 -1374 -618 -1750 -1354 -165 -322 -244 -628
-250 -965 -6 -297 34 -525 142 -810 42 -110 133 -296 175 -357 80 -117 255
-136 365 -40 40 35 65 80 88 162 10 33 35 104 56 158 160 402 457 800 816
1094 480 391 732 687 933 1098 135 274 203 510 204 705 1 109 0 118 -27 163
-30 51 -95 100 -157 117 -125 36 -439 51 -595 29z"/>
<path d="M959 4444 c-123 -38 -391 -372 -534 -669 -207 -425 -261 -860 -170
-1350 137 -735 561 -1374 1137 -1711 243 -142 482 -218 725 -231 142 -7 187 4
248 64 77 75 99 173 99 448 0 231 -15 348 -74 580 -87 342 -263 712 -486 1020
-220 304 -332 496 -427 735 -112 281 -167 513 -187 792 -5 71 -15 147 -22 171
-18 61 -92 131 -159 151 -63 19 -89 19 -150 0z"/>
<path d="M5603 4016 c-97 -31 -130 -76 -194 -271 -81 -247 -254 -555 -446
-794 -109 -136 -294 -318 -458 -451 -398 -322 -663 -631 -858 -1000 -166 -314
-270 -715 -227 -872 15 -52 68 -119 117 -146 94 -52 383 -83 578 -63 464 48
920 272 1294 635 404 394 674 890 764 1406 28 164 30 468 4 636 -37 234 -105
442 -220 674 -81 164 -125 217 -202 243 -57 20 -95 20 -152 3z"/>
<path d="M2767 1012 c-16 -26 -48 -161 -50 -211 -2 -51 1 -63 22 -85 28 -30
80 -43 110 -27 50 27 178 190 195 247 6 21 3 22 -81 26 -70 4 -99 10 -140 31
-29 15 -54 23 -56 19z"/>
</g>
</svg>
