<?xml version="1.0" encoding="iso-8859-1"?>
<!-- Uploaded to: SVG Repo, www.svgrepo.com, Generator: SVG Repo Mixer Tools -->
<svg fill="#000000" height="800px" width="800px" version="1.1" id="Layer_1" xmlns="http://www.w3.org/2000/svg" xmlns:xlink="http://www.w3.org/1999/xlink" 
	 viewBox="0 0 512.003 512.003" xml:space="preserve">
<path d="M150.371,474.77c-2.932,0-5.862-1.117-8.099-3.355c-4.473-4.473-4.473-11.725,0-16.198l22.075-22.076
	c-34.627,0.048-69.922,0.06-104.759-0.112c-31.864-0.155-50.233-0.881-57.279-13.958c-6.573-12.201,1.573-26.307,15.77-48.089
	l99.495-149.51c3.506-5.267,10.618-6.693,15.881-3.19c5.266,3.505,6.694,10.615,3.189,15.881l-99.433,149.42
	c-3.066,4.705-11.829,18.15-13.849,24.236c7.22,2.162,28.003,2.264,36.338,2.305c34.809,0.172,70.104,0.159,104.726,0.112
	l-22.153-22.154c-4.473-4.473-4.473-11.725,0.001-16.198c4.473-4.472,11.725-4.473,16.198,0l41.665,41.669
	c4.473,4.473,4.473,11.725,0,16.198l-41.665,41.667C156.234,473.652,153.303,474.77,150.371,474.77z M256.042,433.031
	c-6.326,0-11.454-5.127-11.454-11.454c0-6.326,5.127-11.454,11.454-11.454h198.867c6.924-0.053,26.789-0.209,33.764-2.226
	c-2.076-6.441-11.67-21.048-15.068-26.221c-16.568-25.23-33.531-50.713-50.247-75.75l-6.04,30.618
	c-1.226,6.207-7.239,10.247-13.454,9.02c-6.205-1.224-10.245-7.248-9.02-13.453l11.404-57.809c0.001-0.003,0.001-0.005,0.003-0.009
	c0-0.005,0.001-0.011,0.003-0.018c0.001-0.006,0.003-0.011,0.004-0.017c0.001-0.006,0.003-0.011,0.004-0.018
	c0.001-0.005,0.003-0.01,0.004-0.015c0.001-0.006,0.003-0.013,0.004-0.02c0.001-0.005,0.001-0.009,0.003-0.014
	c0.001-0.008,0.004-0.015,0.005-0.023c0.001-0.004,0.001-0.008,0.003-0.011c0.001-0.009,0.004-0.017,0.005-0.025
	c0.001-0.003,0.001-0.005,0.001-0.008c0.003-0.01,0.005-0.022,0.008-0.032c0,0,0,0,0-0.001c0.593-2.739,2.188-5.265,4.662-6.982
	c0.004-0.003,0.008-0.005,0.011-0.008c0.004-0.003,0.006-0.005,0.01-0.006c0.045-0.031,0.088-0.061,0.132-0.09
	c0.057-0.038,0.116-0.076,0.173-0.113c0.001,0,0.003-0.001,0.003-0.001c0.004-0.003,0.009-0.005,0.013-0.008
	c2.595-1.667,5.624-2.155,8.439-1.595l57.779,11.4c6.207,1.224,10.245,7.248,9.02,13.454c-1.226,6.207-7.257,10.245-13.454,9.019
	l-30.742-6.065c16.766,25.109,33.782,50.671,50.418,76.006c14.997,22.834,23.624,37.596,16.974,50.035
	c-6.894,12.897-24.394,13.658-54.73,13.893L256.042,433.031z M384.994,239.272c-3.705,0-7.341-1.794-9.546-5.11L276.015,84.74
	c-14.471-21.301-18.378-23.948-19.858-24.517c-0.682,0.337-2.631,1.559-6.24,5.722c-4.574,5.276-10.207,13.426-15.111,20.703
	c-16.945,25.136-33.946,50.694-50.625,75.846l30.884-6.093c6.209-1.226,12.229,2.814,13.454,9.019
	c1.224,6.205-2.814,12.23-9.02,13.454l-57.806,11.407c-2.851,0.563-5.928,0.048-8.548-1.688c-2.662-1.764-4.349-4.45-4.915-7.355
	l-11.4-57.787c-1.224-6.205,2.815-12.229,9.02-13.453c6.205-1.229,12.229,2.814,13.454,9.02l6.012,30.475
	c16.631-25.08,33.584-50.563,50.496-75.649c15.345-22.762,25.712-36.586,40.274-36.612c0.013,0,0.028,0,0.041,0
	c14.279,0,24.223,13.123,38.899,34.728l99.492,149.512c3.505,5.266,2.077,12.376-3.189,15.881
	C389.377,238.651,387.173,239.272,384.994,239.272z"/>
</svg>